<?xml version="1.0" encoding="UTF-8"?>
<svg version="1.1" xmlns="http://www.w3.org/2000/svg" width="128" height="128">
<path d="M0 0 C12.82033195 9.55552692 21.77465643 24.37337557 24.203125 40.1875 C25.84360752 61.05687973 22.30148014 78.47579467 8.484375 94.84375 C-2.54827392 106.17866327 -17.13649621 113.90977628 -33.06640625 114.48828125 C-53.2053453 114.70223837 -69.84160575 110.74396207 -84.796875 96.1875 C-99.75291447 79.28911775 -103.06195106 61.98639557 -101.796875 40.1875 C-99.84568206 24.82629014 -90.03231493 9.86603539 -78.109375 0.4375 C-53.91185037 -16.824623 -24.53398924 -15.89912152 0 0 Z " fill="#171718" transform="translate(102.796875,12.8125)"/>
<path d="M0 0 C12.82033195 9.55552692 21.77465643 24.37337557 24.203125 40.1875 C25.84360752 61.05687973 22.30148014 78.47579467 8.484375 94.84375 C-2.54827392 106.17866327 -17.13649621 113.90977628 -33.06640625 114.48828125 C-53.2053453 114.70223837 -69.84160575 110.74396207 -84.796875 96.1875 C-99.75291447 79.28911775 -103.06195106 61.98639557 -101.796875 40.1875 C-99.84568206 24.82629014 -90.03231493 9.86603539 -78.109375 0.4375 C-53.91185037 -16.824623 -24.53398924 -15.89912152 0 0 Z M-80.796875 10.1875 C-92.9431627 24.68623077 -97.9622658 39.46482814 -96.796875 58.1875 C-95.1027785 72.4782942 -87.78219107 86.88007018 -76.55859375 96.0078125 C-61.63512978 107.00404911 -47.08588812 110.81504708 -28.796875 109.1875 C-24.52760619 108.31765999 -20.7579392 106.98263311 -16.796875 105.1875 C-15.51103516 104.64416016 -15.51103516 104.64416016 -14.19921875 104.08984375 C0.35695586 97.45294806 10.39851843 85.97123279 16.23046875 71.171875 C21.27898897 55.68163625 20.77018365 40.14838763 13.48681641 25.49291992 C5.55155405 10.19401898 -5.61310624 1.33497527 -21.796875 -4.8125 C-41.54359353 -10.60893844 -66.70166185 -5.69644578 -80.796875 10.1875 Z " fill="#6058D7" transform="translate(102.796875,12.8125)"/>
<path d="M0 0 C9.82922318 1.63820386 17.90278862 6.63001929 23.875 14.6875 C26 18 26 18 26 20 C24.59546357 20.89434157 23.17578131 21.76493192 21.75 22.625 C20.56664062 23.35589844 20.56664062 23.35589844 19.359375 24.1015625 C17 25 17 25 14.8515625 24.296875 C12.27164959 22.48984739 10.2255139 20.2255139 8 18 C4.72890016 15.66350011 1.60237439 13.8011872 -2 12 C-1.34 8.04 -0.68 4.08 0 0 Z " fill="#F7F7F7" transform="translate(74,24)"/>
<path d="M0 0 C0.89434157 1.40453643 1.76493192 2.82421869 2.625 4.25 C3.35589844 5.43335938 3.35589844 5.43335938 4.1015625 6.640625 C5 9 5 9 4.2890625 11.19921875 C3 13 3 13 0.75 14.5625 C-3.49098212 18.32155233 -5.42687309 22.9734265 -8 28 C-13.94 27.01 -13.94 27.01 -20 26 C-18.36179614 16.17077682 -13.36998071 8.09721138 -5.3125 2.125 C-2 0 -2 0 0 0 Z " fill="#F8F8F8" transform="translate(44,28)"/>
<path d="M0 0 C3.7910119 1.44950455 7.3874638 3.15172566 11 5 C8.12765055 13.42457132 1.31722534 18.62018851 -6.375 22.625 C-11.54716981 25.1509434 -11.54716981 25.1509434 -15 24 C-15.66 20.37 -16.32 16.74 -17 13 C-15.618125 12.278125 -14.23625 11.55625 -12.8125 10.8125 C-8.90759079 8.64855502 -5.99670856 6.34926251 -3 3 C-2 2 -1 1 0 0 Z " fill="#FAFAFA" transform="translate(89,79)"/>
<path d="M0 0 C1.01534595 3.3603116 1.13383137 6.43586286 1.125 9.9375 C1.12757812 10.95714844 1.13015625 11.97679688 1.1328125 13.02734375 C1.00911936 15.79588725 0.62526738 18.30539535 0 21 C-5.01083671 20.49042339 -8.21230687 19.91507725 -13 18 C-12.67 12.72 -12.34 7.44 -12 2 C-4.125 -0.25 -4.125 -0.25 0 0 Z " fill="#F2F2F2" transform="translate(105,54)"/>
<path d="M0 0 C0.71542969 0.14308594 1.43085937 0.28617187 2.16796875 0.43359375 C3.56982422 0.71396484 3.56982422 0.71396484 5 1 C8.33333333 1.66666667 11.66666667 2.33333333 15 3 C15 7.29 15 11.58 15 16 C7.77102428 16.64257562 1.42842633 14.21421316 -5 11 C-4.46884894 6.48521602 -2.63379708 3.65333143 0 0 Z " fill="#F7F7F7" transform="translate(49,90)"/>
<path d="M0 0 C2.37358856 1.74895999 2.90824059 3.54797021 3.78125 6.3125 C2.68661178 7.48811146 1.58017814 8.6527489 0.46875 9.8125 C-0.14613281 10.4621875 -0.76101562 11.111875 -1.39453125 11.78125 C-3.21875 13.3125 -3.21875 13.3125 -6.21875 13.3125 C-7.60546875 11.8515625 -7.60546875 11.8515625 -8.90625 9.9375 C-9.56173828 8.99777344 -9.56173828 8.99777344 -10.23046875 8.0390625 C-11.21875 6.3125 -11.21875 6.3125 -11.21875 4.3125 C-9.81421357 3.41815843 -8.39453131 2.54756808 -6.96875 1.6875 C-6.17984375 1.20023437 -5.3909375 0.71296875 -4.578125 0.2109375 C-2.21875 -0.6875 -2.21875 -0.6875 0 0 Z " fill="#F0F0F0" transform="translate(39.21875,79.6875)"/>
<path d="M0 0 C4.29 0 8.58 0 13 0 C13 2.64 13 5.28 13 8 C8.58774263 9.47075246 5.51718381 10.36884358 1 9 C0.67 6.03 0.34 3.06 0 0 Z " fill="#F6F6F6" transform="translate(22,64)"/>
<path d="M0 0 C0 4.29 0 8.58 0 13 C-2.64 13 -5.28 13 -8 13 C-10.54285714 5.37142857 -10.54285714 5.37142857 -9 1 C-6.04335481 -0.4783226 -3.25770263 -0.06032783 0 0 Z " fill="#F6F6F6" transform="translate(64,22)"/>
</svg>
